<svg xmlns="http://www.w3.org/2000/svg" viewBox="0 0 195 206" role="img" aria-label="PandaAI">
  <path
    d="m96.07,94.87c0,0 -1.07,4.12 -1.07,4.12c0,0 -5.41,18.32 -5.41,18.32c0,0 -14.01,42.6 -14.01,42.6c0,0 -8.34,26.55 -8.34,26.55c0,0 14.6,8.35 14.6,8.35c1.09,0.62 15.78,8.19 15.89,8.19c0.1,0 15.91,-8.04 16.9,-8.59l15.33,-8.58l-1.35,-2.67c0,0 -14.98,-43.2 -14.98,-43.2c-0.18,-0.56 -13.63,-42.6 -13.63,-42.63c0,-0.59 -1.03,-2.94 -1.43,-3.27c-1.14,-0.95 -1.65,-0.79 -2.5,0.81z"
    fill="#000"
  />
  <path
    d="m91.21,4.05c0,0 -19.5,4.55 -19.5,4.55c-10.31,2.18 -17.89,4.29 -18.9,5.27c-0.26,0.26 -21.96,42.99 -25.83,50.87l-24.15,49.25l4.76,8.75c0,0 14.21,25.26 14.21,25.26c0,0 11.82,19.67 11.82,19.67c1.58,2.13 6.81,5.48 16.02,10.26c0,0 13.97,6.79 13.97,6.79c0,0 -3.67,-11.26 -3.67,-11.26c0,0 -10.52,-30.78 -10.52,-30.78c-2.51,-7.61 -6.35,-21.1 -6.23,-21.9c0.23,-1.56 6.83,-5.79 26.56,-17.02l26.25,-14.95l0,-42.9c0,-33.7 -0.27,-42.9 -1.25,-42.85c0,0 -3.54,0.99 -3.54,0.99z"
    fill="#000"
  />
  <path
    d="m100.02,45.14c0,16.37 0.46,43.01 0.75,43.43c0,0 6.73,4.4 6.73,4.4c0,0 25.75,14.76 25.75,14.76c16.67,9.64 19.75,11.78 19.75,13.73c0,0.2 -5.83,19.54 -6.38,21.17c0,0 -10.58,30.21 -10.58,30.21c0,0 -3.87,11.61 -3.87,11.61c0,0 14.71,-6.84 14.71,-6.84l14.38,-7.11l12.88,-22c0,0 16.01,-28.01 16.01,-28.01l3.13,-6.02l-14.38,-29.48c0,0 -24.88,-50.49 -24.88,-50.49c-10.45,-20.85 -10.55,-21.01 -14.52,-22.16c0,0 -20.38,-4.83 -20.38,-4.83c0,0 -17.75,-4.2 -17.75,-4.2c-1.15,-0.44 -1.37,6.3 -1.35,41.83z"
    fill="#000"
  />
</svg>
